<svg xmlns="http://www.w3.org/2000/svg" viewBox="0 0 512 512" role="img" aria-labelledby="title desc">
  <title id="title">Outfit Picker app icon</title>
  <desc id="desc">A lavender clothing hanger and shirt with a small sparkle on a deep purple background.</desc>
  <defs>
    <linearGradient id="background" x1="72" y1="44" x2="442" y2="470" gradientUnits="userSpaceOnUse">
      <stop stop-color="#7464e8"/>
      <stop offset="1" stop-color="#41318d"/>
    </linearGradient>
    <linearGradient id="shirt" x1="158" y1="174" x2="355" y2="404" gradientUnits="userSpaceOnUse">
      <stop stop-color="#fff8f5"/>
      <stop offset="1" stop-color="#e9e4ff"/>
    </linearGradient>
    <filter id="shadow" x="-20%" y="-20%" width="140%" height="145%">
      <feDropShadow dx="0" dy="12" stdDeviation="11" flood-color="#251a5e" flood-opacity=".35"/>
    </filter>
  </defs>
  <rect width="512" height="512" rx="112" fill="url(#background)"/>
  <circle cx="256" cy="256" r="196" fill="#fff" fill-opacity=".075"/>
  <path d="M232 154c0-27 16-45 39-45 20 0 37 14 37 34 0 16-10 28-25 37l-16 10" fill="none" stroke="#fff8f5" stroke-linecap="round" stroke-width="24"/>
  <g filter="url(#shadow)">
    <path d="m193 184 63 36 63-36 53 29 39 89-62 29-20-41v119H181V290l-20 41-62-29 39-89z" fill="url(#shirt)" stroke="#fff8f5" stroke-linejoin="round" stroke-width="18"/>
    <path d="M221 200c8 22 21 33 35 33s27-11 35-33" fill="none" stroke="#6a58d4" stroke-linecap="round" stroke-width="13"/>
    <path d="M208 293c26 18 70 18 96 0" fill="none" stroke="#d3caff" stroke-linecap="round" stroke-width="12"/>
  </g>
  <path d="m383 119 8 23 23 8-23 8-8 23-8-23-23-8 23-8z" fill="#ffd487"/>
  <circle cx="394" cy="218" r="10" fill="#ffd487"/>
</svg>
